<svg xmlns="http://www.w3.org/2000/svg" version="1.1" xmlns:xlink="http://www.w3.org/1999/xlink" xmlns:svgjs="http://svgjs.com/svgjs" width="16" height="16"><svg width="16" height="16" viewBox="0 0 16 16" fill="none" xmlns="http://www.w3.org/2000/svg">
<path d="M8.41177 6.28571H9.2353V7.14286H8.41177V6.28571Z" fill="black"></path>
<path d="M9.2353 6.28571H10.0588V7.14286H9.2353V6.28571Z" fill="black"></path>
<path d="M8.41177 7.14286H9.2353V8H8.41177V7.14286Z" fill="black"></path>
<path d="M9.2353 7.14286H10.0588V8H9.2353V7.14286Z" fill="black"></path>
<path d="M7.58824 7.14286H8.41177V8H7.58824V7.14286Z" fill="black"></path>
<path d="M8.41177 8H9.2353V8.85714H8.41177V8Z" fill="black"></path>
<path d="M8.41177 8.85714H9.2353V9.71429H8.41177V8.85714Z" fill="black"></path>
<path d="M8.41177 9.71429H9.2353V10.5714H8.41177V9.71429Z" fill="#C3453F"></path>
<path d="M7.58824 8.85714L8.41177 8.85714V9.71429H7.58824V8.85714Z" fill="black"></path>
<path d="M6.76471 8.85714H7.58824V9.71429H6.76471V8.85714Z" fill="black"></path>
<path d="M6.76471 9.71429H7.58824L7.58824 10.5714H6.76471V9.71429Z" fill="black"></path>
<path d="M6.76471 10.5714H7.58824V11.4286H6.76471V10.5714Z" fill="black"></path>
<path d="M6.76471 11.4286H7.58824V12.2857H6.76471V11.4286Z" fill="black"></path>
<path d="M6.76471 12.2857H7.58824V13.1429H6.76471V12.2857Z" fill="black"></path>
<path d="M7.58824 13.1429H8.41177V14H7.58824L7.58824 13.1429Z" fill="black"></path>
<path d="M8.41177 13.1429H9.2353V14H8.41177V13.1429Z" fill="black"></path>
<path d="M9.2353 13.1429H10.0588V14H9.2353V13.1429Z" fill="black"></path>
<path d="M10.0588 12.2857H10.8824V13.1429H10.0588L10.0588 12.2857Z" fill="black"></path>
<path d="M10.0588 11.4286H10.8824V12.2857H10.0588V11.4286Z" fill="black"></path>
<path d="M10.0588 10.5714H10.8824V11.4286H10.0588V10.5714Z" fill="black"></path>
<path d="M10.0588 9.71429H10.8824V10.5714H10.0588V9.71429Z" fill="black"></path>
<path d="M5.94118 8.85714H6.76471V9.71429H5.94118V8.85714Z" fill="black"></path>
<path d="M5.11765 8.85714H5.94118V9.71429H5.11765V8.85714Z" fill="black"></path>
<path d="M5.94118 9.71429H6.76471V10.5714H5.94118V9.71429Z" fill="black"></path>
<path d="M5.11765 9.71429H5.94118V10.5714H5.11765V9.71429Z" fill="black"></path>
<path d="M10.8824 9.71429H11.7059V10.5714H10.8824V9.71429Z" fill="black"></path>
<path d="M11.7059 9.71429H12.5294V10.5714H11.7059V9.71429Z" fill="black"></path>
<path d="M5.11765 8H5.94118L5.94118 8.85714H5.11765V8Z" fill="black"></path>
<path d="M7.58824 9.71429H8.41177V10.5714H7.58824L7.58824 9.71429Z" fill="#DD6B67"></path>
<path d="M7.58824 10.5714H8.41177L8.41177 11.4286H7.58824V10.5714Z" fill="#DD6B67"></path>
<path d="M7.58824 11.4286H8.41177V12.2857H7.58824V11.4286Z" fill="#DD6B67"></path>
<path d="M7.58824 12.2857H8.41177V13.1429H7.58824V12.2857Z" fill="#DD6B67"></path>
<path d="M8.41177 12.2857H9.2353V13.1429H8.41177V12.2857Z" fill="#DD6B67"></path>
<path d="M8.41177 11.4286H9.2353V12.2857H8.41177V11.4286Z" fill="#DD6B67"></path>
<path d="M8.41177 10.5714H9.2353V11.4286H8.41177L8.41177 10.5714Z" fill="#C3453F"></path>
<path d="M9.2353 10.5714H10.0588V11.4286H9.2353V10.5714Z" fill="#DD6B67"></path>
<path d="M9.2353 11.4286H10.0588V12.2857H9.2353V11.4286Z" fill="#DD6B67"></path>
<path d="M9.2353 12.2857H10.0588L10.0588 13.1429H9.2353V12.2857Z" fill="#DD6B67"></path>
<path d="M9.2353 8.85714L10.0588 8.85714L10.0588 9.71429H9.2353V8.85714Z" fill="black"></path>
<path d="M10.0588 8.85714H10.8824V9.71429H10.0588L10.0588 8.85714Z" fill="black"></path>
<path d="M10.8824 8.85714H11.7059V9.71429H10.8824V8.85714Z" fill="black"></path>
<path d="M11.7059 8.85714H12.5294V9.71429H11.7059V8.85714Z" fill="black"></path>
<path d="M11.7059 8H12.5294V8.85714H11.7059L11.7059 8Z" fill="black"></path>
<path d="M9.2353 9.71429H10.0588V10.5714H9.2353V9.71429Z" fill="#DD6B67"></path>
<path d="M7.58824 6.28571H8.41177V7.14286H7.58824V6.28571Z" fill="black"></path>
<path d="M2.64706 2.85714H3.47059V3.71429H2.64706V2.85714Z" fill="black"></path>
<path d="M7.58824 2.85714H8.41176V3.71429H7.58824V2.85714Z" fill="black"></path>
<path d="M4.29411 4.57143H5.11764V5.42857H4.29411V4.57143Z" fill="black"></path>
<path d="M6.76471 3.71429H7.58824L7.58823 4.57143H6.76471V3.71429Z" fill="black"></path>
<path d="M6.76471 2.85714L7.58824 2.85714V3.71429H6.76471V2.85714Z" fill="white"></path>
<path d="M5.94118 3.71429L6.76471 3.71429V4.57143L5.94118 4.57143V3.71429Z" fill="white"></path>
<path d="M3.47059 2.85714H4.29412V3.71429H3.47059V2.85714Z" fill="black"></path>
<path d="M5.94118 4.57143L6.76471 4.57143L6.76471 5.42857H5.94118L5.94118 4.57143Z" fill="black"></path>
<path d="M9.23529 2.85714H10.0588V3.71429H9.23529V2.85714Z" fill="black"></path>
<path d="M10.0588 2.85714H10.8824V3.71429H10.0588V2.85714Z" fill="black"></path>
<path d="M10.0588 3.71429H10.8824V4.57143H10.0588V3.71429Z" fill="black"></path>
<path d="M10.8824 4.57143H11.7059V5.42857H10.8823L10.8824 4.57143Z" fill="black"></path>
<path d="M11.7059 3.71429H12.5294V4.57143H11.7059L11.7059 3.71429Z" fill="black"></path>
<path d="M11.7059 4.57143H12.5294V5.42857H11.7059V4.57143Z" fill="black"></path>
<path d="M12.5294 4.57143H13.3529V5.42857H12.5294V4.57143Z" fill="black"></path>
<path d="M13.3529 3.71429H14.1765V4.57143H13.3529L13.3529 3.71429Z" fill="black"></path>
<path d="M12.5294 3.71429H13.3529L13.3529 4.57143H12.5294V3.71429Z" fill="white"></path>
<path d="M13.3529 2.85714H14.1765V3.71429H13.3529V2.85714Z" fill="white"></path>
<path d="M14.1765 2.85714L15 2.85714V3.71429H14.1765V2.85714Z" fill="black"></path>
<path d="M11.7059 2.85714H12.5294V3.71429H11.7059V2.85714Z" fill="black"></path>
<path d="M12.5294 2.85714L13.3529 2.85714V3.71429H12.5294V2.85714Z" fill="black"></path>
<path d="M12.5294 2H13.3529L13.3529 2.85714L12.5294 2.85714L12.5294 2Z" fill="black"></path>
<path d="M13.3529 2H14.1765L14.1765 2.85714H13.3529L13.3529 2Z" fill="black"></path>
<path d="M14.1765 2H15V2.85714L14.1765 2.85714L14.1765 2Z" fill="black"></path>
<path d="M11.7059 2H12.5294L12.5294 2.85714H11.7059V2Z" fill="black"></path>
<path d="M10.8823 2H11.7059V2.85714H10.8824L10.8823 2Z" fill="black"></path>
<path d="M10.8824 3.71429H11.7059L11.7059 4.57143H10.8824V3.71429Z" fill="black"></path>
<path d="M10.8824 2.85714H11.7059V3.71429H10.8824V2.85714Z" fill="black"></path>
<path d="M5.11765 3.71429L5.94118 3.71429V4.57143L5.11764 4.57143L5.11765 3.71429Z" fill="black"></path>
<path d="M1.82353 2H2.64706L2.64706 2.85714L1.82353 2.85714V2Z" fill="black"></path>
<path d="M1 2H1.82353V2.85714H1V2Z" fill="black"></path>
<path d="M5.94118 2.85714L6.76471 2.85714V3.71429L5.94118 3.71429L5.94118 2.85714Z" fill="black"></path>
<path d="M6.76471 2H7.58824L7.58824 2.85714L6.76471 2.85714L6.76471 2Z" fill="black"></path>
<path d="M5.94118 2H6.76471L6.76471 2.85714L5.94118 2.85714V2Z" fill="black"></path>
<path d="M5.11765 2H5.94118V2.85714L5.11765 2.85714V2Z" fill="black"></path>
<path d="M4.29411 2H5.11765V2.85714L4.29412 2.85714L4.29411 2Z" fill="black"></path>
<path d="M3.47059 2H4.29411L4.29412 2.85714H3.47059L3.47059 2Z" fill="black"></path>
<path d="M7.58824 2H8.41176V2.85714H7.58824L7.58824 2Z" fill="black"></path>
<path d="M4.29412 2.85714L5.11765 2.85714V3.71429H4.29412V2.85714Z" fill="black"></path>
<path d="M5.11765 2.85714L5.94118 2.85714L5.94118 3.71429L5.11765 3.71429V2.85714Z" fill="black"></path>
<path d="M4.29412 3.71429H5.11765L5.11764 4.57143H4.29411L4.29412 3.71429Z" fill="black"></path>
<path d="M10.0588 2H10.8823L10.8824 2.85714H10.0588V2Z" fill="black"></path>
<path d="M5.11764 4.57143L5.94118 4.57143L5.94118 5.42857H5.11764V4.57143Z" fill="black"></path>
<path d="M9.23529 2H10.0588V2.85714H9.23529V2Z" fill="black"></path>
<path d="M3.47059 3.71429H4.29412L4.29411 4.57143H3.47059L3.47059 3.71429Z" fill="black"></path>
<path d="M8.41176 2H9.23529V2.85714H8.41176V2Z" fill="black"></path>
<path d="M2.64706 2H3.47059L3.47059 2.85714H2.64706L2.64706 2Z" fill="black"></path>
</svg><style>@media (prefers-color-scheme: light) { :root { filter: none; } }
</style></svg>